<svg width="255" height="236" viewBox="0 0 255 236" fill="none" xmlns="http://www.w3.org/2000/svg">
<g clip-path="url(#clip0_63_5)">
<rect width="235" height="215.26" transform="matrix(-1 0 0 1 245 10)" fill="#FCF1E3"/>
<path d="M136.643 219.437C140.19 222.731 145.643 222.123 148.873 218.518C149.596 217.711 149.503 217.253 148.68 216.612C143.966 212.94 139.522 208.958 135.326 204.702C129.379 198.667 124.22 192.064 120.588 184.341C115.951 174.484 115.477 164.47 119.327 154.263C120.899 150.096 122.93 146.151 125.054 142.249C125.407 141.6 125.809 141.39 126.592 141.409C138.008 141.686 148.911 139.856 158.632 133.355C163.323 130.219 167.022 126.139 170 121.366C172.188 117.86 174.308 114.298 177.377 111.445C182.927 106.283 189.56 103.173 196.819 101.358C209.366 98.2199 220.381 101.54 230.193 109.59C233.588 112.375 236.623 115.496 238.598 119.495C239.872 122.073 240.748 124.74 240.121 127.681C239.561 130.305 238.097 132.401 236.114 134.091C229.831 139.448 222.704 141.579 214.59 139.295C211.375 138.39 208.785 136.383 206.635 133.87C203.273 129.941 201.226 125.435 201.251 120.18C201.271 116.106 202.995 112.917 206.679 110.999C214.36 107.001 225.716 109.185 228.089 121.059C228.823 124.73 227.13 127.873 223.718 129.393C221.288 130.475 218.768 130.693 216.213 129.966C212.618 128.943 211.372 126.146 211.427 122.765C211.446 121.545 211.646 120.332 212.278 119.228C213.185 117.644 214.295 117.184 216.036 117.759C216.989 118.073 217.834 118.593 218.653 119.168C219.836 119.998 220.007 118.645 220.569 118.212C221.177 117.745 220.85 117.284 220.349 116.928C218.841 115.857 217.269 114.948 215.387 114.683C213.331 114.393 211.671 115.109 210.43 116.691C207.186 120.831 207.182 130.46 215.196 132.982C220.689 134.711 227.342 132.567 230.071 128.122C231.906 125.134 231.935 121.912 231.047 118.69C228.19 108.33 219.114 104.024 209.671 105.927C206.24 106.619 203.186 108.077 200.844 110.707C197.495 114.465 196.682 118.976 197.503 123.807C198.604 130.28 201.66 135.701 206.744 139.87C210.339 142.817 214.534 144.337 219.191 144.542C227.017 144.887 233.858 142.424 239.691 137.223C241.777 135.362 243.275 133.1 244.307 130.508C244.789 129.296 244.971 127.991 244.986 126.686C244.992 126.087 244.996 125.488 244.998 124.885C245.002 123.466 244.809 122.004 244.378 120.652C242.548 114.911 238.862 110.477 234.487 106.531C232.53 104.766 230.458 103.176 228.238 101.749C226.014 100.319 226.328 96.7582 228.765 95.7308C232.389 94.2025 235.8 92.3325 238.462 89.3499C240.446 87.1264 241.655 84.5533 241.358 81.502C241.136 79.2135 240.266 77.1003 238.896 75.2694C233.99 68.7148 227.728 64.0021 219.682 62.1701C211.58 60.3254 203.978 65.6612 202.052 74.1876C200.728 80.0496 204.465 85.7272 210.56 87.2753C217.489 89.0351 222.296 84.3278 222.796 77.7316C222.926 76.0145 222.897 74.283 222.147 72.6582C221.248 70.7105 219.771 70.0389 217.748 70.7069C215.744 71.3689 214.129 72.6557 212.539 73.9875C211.903 74.5203 212.329 74.9011 212.635 75.3402C213.008 75.8746 213.385 76.0246 213.95 75.555C215.128 74.575 216.359 73.6626 217.773 73.0391C219.239 72.3924 219.947 72.69 220.286 74.219C220.99 77.3962 220.373 80.351 218.329 82.8678C216.716 84.8537 214.506 85.3342 212.003 84.88C207.917 84.1387 204.547 80.4083 204.686 76.651C204.965 69.1078 212.472 63.5401 219.681 65.7104C226.63 67.8026 232.167 71.9606 236.063 78.1113C238.358 81.7358 237.75 84.7661 234.442 87.5601C230.879 90.5695 226.616 92.1421 222.192 93.3296C218.679 94.2728 215.1 94.9348 211.468 95.095C209.538 95.1801 207.606 94.7087 205.652 94.7231C196.84 94.7883 188.7 97.2694 181.058 101.544C176.046 104.348 171.761 107.987 168.49 112.749C168.047 113.394 167.567 113.703 166.779 113.561C159.374 112.23 152.706 109.387 147.455 103.824C144.813 101.026 143.033 97.813 143.372 93.7165C143.9 87.3396 149.852 81.127 156.196 80.3428C158.84 80.0159 161.397 80.1193 163.496 81.8634C166.666 84.4974 168.07 87.951 167.299 92.0744C166.769 94.9117 163.936 96.7368 160.67 96.5588C156.957 96.3564 153.557 93.4236 152.802 89.7718C152.357 87.6151 153.24 86.6381 155.455 86.8599C158.031 87.1178 159.885 88.4086 160.956 90.7831C161.184 91.2887 161.341 91.7732 162.094 91.5745C162.969 91.3439 163.318 90.9994 162.924 90.0351C161.267 85.9749 157.205 83.8461 152.959 84.8736C151.449 85.239 150.167 86.9537 150.251 88.7262C150.599 96.1086 158.513 101.867 166.06 98.0993C168.649 96.8074 169.919 94.508 170.375 91.6932C171.209 86.5454 168.163 79.3009 162.149 77.4325C158.169 76.1963 154.264 76.6344 150.543 78.3907C144.258 81.3564 140.637 86.445 139.457 93.2071C138.827 96.8101 139.846 100.203 141.758 103.298C144.811 108.241 149.215 111.648 154.297 114.271C155.864 115.079 157.469 115.78 159.133 116.381C161.9 117.38 163.334 120.597 161.354 122.773C155.832 128.842 148.847 132.207 140.912 133.788C137.605 134.447 134.264 134.771 130.89 134.742C130.17 134.736 129.607 134.139 129.961 133.511C130.046 133.36 130.134 133.215 130.212 133.066C132.045 129.523 133.855 125.949 134.314 121.925C134.91 116.69 133.541 112.135 129.196 108.807C128.688 108.418 128.456 107.962 128.343 107.388C127.364 102.387 126.651 97.3428 126.693 92.2439C126.728 88.0667 127.174 83.9221 128.799 79.987C131.272 73.9967 135.857 70.9876 142.152 70.279C148.294 69.5876 154.487 69.2323 160.478 67.5206C162.613 66.9108 164.737 66.2589 166.746 65.3167C172.154 62.7814 177.338 63.4354 182.443 66.2195C185.397 67.8305 187.957 69.7889 189.363 72.9802C190.909 76.4921 188.879 80.6785 185.143 81.6025C183.465 82.0176 182.006 81.56 180.877 80.2941C179.324 78.5531 178.462 76.4954 178.465 74.1288C178.467 72.8002 178.921 72.4809 180.187 72.9299C181.272 73.3147 182.276 73.8779 183.241 74.5031C183.76 74.8387 184.185 74.9401 184.568 74.2889C184.967 73.6105 184.458 73.4098 184.049 73.1422C182.671 72.2392 181.274 71.3651 179.634 71.0154C178.109 70.6903 177.118 71.3484 176.762 72.8765C175.961 76.3122 177.955 81.176 180.946 83.0408C182.529 84.028 184.222 84.1827 186.013 83.6967C189.928 82.6345 194.327 77.7638 191.772 71.8541C190.684 69.3392 189.105 67.1972 186.885 65.593C183.86 63.4064 180.663 61.544 176.927 60.8271C176.512 60.7475 176.334 60.2435 176.676 59.9956C176.915 59.8228 177.176 59.7011 177.407 59.5471C182.366 56.2432 187.028 52.5958 190.662 47.8036C192.623 45.2184 193.959 42.366 194.683 39.1385C195.254 36.5877 197.137 34.6668 199.005 32.89C203.37 28.7382 208.674 26.2303 214.293 24.3093C217.013 23.3795 219.784 22.7266 222.686 22.6341C227.662 22.4754 231.605 24.405 234.557 28.3678C236.846 31.4407 238.339 34.825 238.306 38.7545C238.269 43.1208 236.295 46.3119 232.263 47.9077C226.863 50.0446 221.663 49.487 217.015 45.8413C214.02 43.4926 212.79 39.1894 214.123 36.0417C215.391 33.0485 217.942 31.674 220.945 31.0036C226.203 29.8296 229.764 33.9336 230.379 37.8058C230.573 39.0292 229.877 40.0541 228.521 40.4407C226.18 41.1084 224.084 40.2813 222.029 39.2919C221.542 39.0574 221.133 38.709 220.663 39.3748C220.004 40.3095 220.019 40.587 221.046 41.1282C223.68 42.5159 226.41 43.3975 229.407 42.4649C231.822 41.7138 233.05 39.6089 232.585 37.1119C231.281 30.1044 224.705 26.4937 218.042 29.1363C215.828 30.0145 213.901 31.3053 212.541 33.3017C209.954 37.1016 210.376 40.9756 212.453 44.7971C214.645 48.8319 218.316 50.8459 222.627 51.7611C227.917 52.8842 232.95 52.2474 237.239 48.6941C240.994 45.5832 242.227 41.3949 241.697 36.6398C241.119 31.4531 238.867 27.0864 235.153 23.4472C232.058 20.4147 228.308 18.8996 224.033 18.6769C218.756 18.4021 213.838 19.9584 208.993 21.8059C203.279 23.9849 198.077 26.9711 193.873 31.5129C193.756 31.6394 193.521 31.5882 193.4 31.4649C193.37 31.4344 193.345 31.4013 193.327 31.3643C191.239 26.8962 187.553 23.9699 183.527 21.4734C177.036 17.4494 169.89 15.3394 162.293 14.832C158.905 14.6056 155.569 15.0962 152.405 16.397C148.628 17.9498 146.182 20.8147 144.908 24.6191C143.009 30.2932 143.066 35.9941 145.28 41.5809C147.817 47.9797 152.775 50.8203 159.573 49.7652C163.545 49.1488 167.151 47.5988 170.089 44.7785C174.065 40.9632 174.639 36.0274 171.72 31.3336C170.822 29.8901 169.739 28.5982 168.255 27.7218C165.771 26.254 163.109 26.7728 161.288 29.0093C159.327 31.4171 158.514 34.2484 158.182 37.265C158.149 37.5689 158.163 37.8781 158.128 38.1816C157.938 39.8019 158.036 39.8705 159.613 39.9112C160.581 39.9361 160.814 39.5358 160.879 38.6266C161.047 36.2831 161.531 34.0044 162.803 31.9675C164.435 29.354 166.307 29.2674 168.184 31.7279C168.462 32.0924 168.726 32.4712 168.962 32.8639C171.277 36.7103 170.791 40.0319 167.275 42.8071C163.887 45.4812 160.032 46.8782 155.63 46.2736C152.987 45.9105 150.937 44.5892 149.724 42.2159C146.895 36.6852 146.684 30.9868 148.998 25.2351C150.565 21.3415 153.82 19.5796 157.724 19.3027C168.363 18.5481 177.657 22.0087 185.649 28.9744C188.227 31.2217 190.055 34.0073 189.852 37.6592C189.715 40.1278 188.474 42.1797 187.086 44.1153C184.508 47.7083 181.122 50.4639 177.569 53.016C169.96 58.4811 161.639 62.2586 152.273 63.4161C148.334 63.9029 144.364 64.1298 140.422 64.5946C130.069 65.8151 123.83 72.6349 121.483 82.2731C120.165 87.6853 120.056 93.1756 120.513 98.6952C120.565 99.3145 120.618 99.9336 120.673 100.555C120.892 103.046 118.994 104.931 116.515 104.604C112.768 104.111 109.011 103.622 105.432 102.321C98.7545 99.8942 94.5875 95.0267 92.4275 88.4169C89.6063 79.7839 90.389 71.3644 94.398 63.2345C95.932 60.1236 97.7681 57.2237 100.349 54.8587C104.433 51.1171 108.995 50.599 113.696 53.4899C118.017 56.1476 120.65 59.9769 121.171 65.1133C121.312 66.5032 121.008 67.8606 120.57 69.1735C119.432 72.5892 117.456 75.3881 114.382 77.3251C111.829 78.9336 109.804 78.5395 108.222 76.0095C106.516 73.2823 105.64 70.3419 106.201 67.048C106.772 63.6995 111.63 62.9497 113.458 64.1968C114.292 64.7652 114.449 65.6263 114.307 66.542C114.179 67.3748 113.984 68.2199 113.488 68.9127C112.943 69.6752 113.153 70.1521 113.891 70.5595C114.124 70.6881 114.331 70.865 114.55 71.0177C116.395 72.2987 116.402 72.3021 117.406 70.2016C118.124 68.6988 118.629 67.1139 118.477 65.442C118.14 61.7515 115.562 59.4932 111.652 59.3464C105.42 59.1125 101.47 62.8893 101.521 69.1362C101.548 72.5708 102.384 75.8459 104.337 78.6908C107.603 83.4472 111.827 84.5062 116.758 81.5655C122.835 77.9406 126.21 72.4222 126.341 65.3158C126.437 60.0787 124.254 55.5811 120.484 51.9083C119.708 51.1522 120.042 49.8244 121.058 49.448C121.982 49.1059 122.848 48.7105 123.696 48.2657C130.395 44.7504 134.021 37.3379 132.57 29.9527C131.853 26.3082 129.599 23.8887 126.193 22.5587C123.428 21.4791 120.574 21.155 117.649 21.8811C114.022 22.7814 111.957 25.9036 112.601 29.587C112.951 31.5878 113.812 33.3716 115.096 34.9407C115.413 35.3282 115.708 35.9035 116.383 35.3596C116.964 34.8922 116.776 34.5105 116.414 34.0075C115.72 33.0457 115.105 32.0334 114.721 30.8913C113.395 26.9471 115.072 24.1348 119.197 23.6784C122.226 23.3433 125.047 24.0928 127.504 25.9694C129.156 27.2309 129.981 28.9941 130.158 31.0037C130.814 38.4515 126.511 44.6144 119.286 46.6556C118.368 46.9149 117.436 47.1493 116.495 47.295C115.324 47.4762 114.188 47.4577 113.01 47.0198C106.73 44.6852 101.215 46.297 96.3208 50.5412C93.2142 53.2351 90.9525 56.6035 89.0877 60.2416C88.7375 60.9248 88.434 61.2624 87.6105 60.8743C78.7624 56.7043 71.0022 51.1121 64.9539 43.3401C62.6155 40.3354 61.0263 36.9296 60.8183 33.0516C60.5902 28.7992 62.3386 25.1814 64.919 21.994C68.3611 17.7422 72.7224 14.8354 78.1429 13.6506C82.867 12.6181 87.0923 13.6611 90.8409 16.6578C94.7144 19.7543 97.2928 23.6602 98.1275 28.6286C98.544 31.108 98.2471 33.5044 96.8512 35.5772C93.552 40.4756 88.764 42.6561 82.9648 42.6303C79.8559 42.6164 78.5781 41.2309 78.992 37.6115C79.3964 34.0754 80.8606 30.9184 83.1819 28.1981C85.1954 25.8385 86.9319 26.1278 88.1213 28.9978C88.2529 29.3153 88.3924 29.6395 88.4535 29.9743C88.6265 30.9219 89.1825 30.985 89.9711 30.747C90.8133 30.4928 90.6048 29.9627 90.4358 29.3829C90.1555 28.4212 89.7822 27.5024 89.2607 26.6482C87.8247 24.2961 85.617 23.8075 83.2791 25.239C81.4057 26.3861 80.251 28.1421 79.1761 29.9517C77.5704 32.655 76.5666 35.5818 76.5001 38.7493C76.422 42.4701 78.1904 44.587 81.8369 45.1644C87.3716 46.0408 96.0399 42.9621 99.5521 36.7638C101.823 32.756 101.726 28.5098 100.192 24.3264C98.0004 18.3536 94.0501 13.8813 88.202 11.2326C85.9402 10.2082 83.3901 9.99386 80.9072 10.0006C80.7798 10.001 80.6521 10.0014 80.5241 10.0021C78.9712 10.0099 77.4153 10.1505 75.9177 10.5616C69.4912 12.3256 64.4467 15.9969 60.593 21.4452C58.0794 24.9989 56.6277 28.9602 56.8186 33.3742C57.024 38.1227 58.8398 42.3348 61.6703 46.0533C68.0524 54.4374 76.1966 60.6613 85.6806 65.1531C86.4986 65.5405 86.6441 65.9021 86.3595 66.7194C85.6926 68.6344 85.2036 70.5959 84.9108 72.6149C84.668 74.2889 83.1313 74.905 81.554 74.2937C76.4019 72.2973 71.0592 71.2768 65.4624 71.5047C60.0581 71.7247 55.0786 73.2494 50.3153 75.788C49.1373 76.4159 47.7465 75.3498 48.0408 74.0477C48.9337 70.097 49.4495 66.1357 48.2117 62.1494C47.353 59.3839 45.66 57.4281 42.9097 56.3794C40.0952 55.3062 37.2396 55.2635 34.3356 55.813C33.5251 55.9663 32.9042 55.9316 32.4085 55.0772C29.459 49.9927 30.4057 43.6013 34.7899 39.6666C37.0975 37.5956 39.7666 36.4554 42.901 37.199C46.5248 38.0586 49.4134 40.0076 51.0924 43.4477C51.7068 44.7063 51.4243 45.4002 50.1976 46.0861C49.175 46.6578 48.018 46.7521 46.8921 46.9583C45.0214 47.301 43.1572 47.0503 41.2903 46.9411C40.7559 46.9098 40.2949 46.9582 40.2418 47.6697C40.1936 48.3166 40.5856 48.4302 41.0824 48.4966C42.7503 48.7196 44.4273 48.9468 46.1059 48.8389C47.7416 48.7337 49.3824 48.523 50.9104 47.8487C53.1211 46.8732 53.8582 45.1992 53.0968 42.8986C52.5018 41.101 51.3744 39.6532 49.9906 38.4176C46.8948 35.6532 43.3654 33.9006 39.1123 34.6642C31.3243 36.0625 25.9865 44.7262 27.9165 52.5945C28.1902 53.7105 28.6189 54.7684 29.054 55.864C29.2743 56.4189 29.0277 57.0822 28.465 57.2817C26.6252 57.934 24.8012 58.6343 23.0816 59.5582C18.0825 62.2441 13.261 65.1324 10.6411 70.3717C10.1742 71.3055 10 72.3125 10 73.3566C10 74.5176 10.2199 75.7189 10.774 76.7393C14.0318 82.7382 19.4566 85.347 26.2128 85.6196C29.707 85.7606 32.6476 84.1379 34.8037 81.2967C36.3255 79.2914 37.536 77.1202 37.8484 74.5774C38.4404 69.7597 36.6397 67.3507 31.8504 66.58C29.7791 66.2466 27.7223 66.4419 25.7803 67.3026C23.2584 68.4204 22.6714 70.343 24.1054 72.717C24.6644 73.6425 25.4566 74.3742 26.1983 75.1478C26.6239 75.5918 26.9824 75.5347 27.3411 75.0934C27.6629 74.6975 28.2285 74.3523 27.6678 73.7471C27.0426 73.0724 26.4216 72.3928 25.9553 71.5951C25.2745 70.4307 25.4415 69.8664 26.6749 69.3696C29.0339 68.4194 31.3858 68.5429 33.6824 69.5839C34.7831 70.0828 35.303 71.0034 35.4453 72.2106C35.879 75.8893 32.4487 82.0412 27.5499 82.6855C25.716 82.9266 23.9613 82.6844 22.2395 82.1428C19.37 81.2402 16.9223 79.6371 14.8915 77.4178C12.7165 75.0409 12.6451 72.5805 14.7036 70.1032C16.7373 67.6557 19.2774 65.8152 22.0211 64.2608C26.2159 61.8844 30.6592 60.1785 35.4679 59.5611C36.7942 59.3908 38.1388 59.3592 39.4657 59.612C42.931 60.272 44.4084 62.0363 44.5989 65.6014C44.8247 69.8261 43.7429 73.7877 42.2449 77.6657C41.7489 78.9495 41.1615 80.1989 40.5897 81.4521C39.7111 83.3773 38.5311 85.0875 37.1701 86.723C33.1545 91.5486 30.091 96.8929 28.8908 103.152C27.8523 108.568 28.3339 113.712 32.0259 118.107C35.0801 121.742 39.198 123.631 43.7122 124.712C59.5529 128.503 73.2862 117.643 77.0934 105.716C80.1051 96.2812 75.5969 88.7002 66.7151 85.1176C61.2346 82.907 55.7464 82.9734 50.4718 85.9661C47.6741 87.5534 45.5696 89.8344 43.8578 92.521C41.3121 96.5165 39.8311 100.807 39.9635 105.619C40.1113 110.988 42.7536 113.883 48.1197 114.12C52.3459 114.307 56.2977 113.236 59.8877 110.949C60.3374 110.662 60.7603 110.325 61.1612 109.971C63.7476 107.693 64.1555 104.59 62.2031 101.744C60.8438 99.7617 59.0484 98.2197 57.0994 96.8362C56.4135 96.3492 56.0289 96.6449 55.7424 97.2247C55.4513 97.814 54.4199 98.318 55.4659 99.1266C56.9807 100.298 58.4897 101.481 59.5781 103.094C60.914 105.075 60.7312 106.565 58.8007 107.94C55.3784 110.379 51.505 111.257 47.3749 110.716C44.5652 110.348 43.4891 108.946 43.3567 106.019C43.2386 103.409 43.7874 100.911 44.7567 98.5146C46.0065 95.4246 47.7418 92.652 50.4127 90.5699C54.8825 87.0852 59.7873 86.7423 64.91 88.7651C69.0074 90.383 72.1157 93.0745 73.3686 97.4987C74.2869 100.741 73.3664 103.776 71.9132 106.574C67.7466 114.598 61.2385 119.506 52.1303 120.393C47.2045 120.872 42.5416 119.656 38.4093 116.832C34.432 114.115 33.3553 110.154 34.0701 105.63C35.2396 98.2276 39.2462 92.3935 44.5539 87.3643C48.5768 83.5524 53.1684 80.6365 58.5135 79.0232C66.5845 76.5872 74.1886 78.1332 81.6524 81.5647C83.8499 82.5751 84.6681 83.9035 85.106 86.2966C87.3206 98.3981 94.6845 107.308 107.266 110.32C111.25 111.274 115.334 111.621 119.311 112.567C120.165 112.77 121.023 112.982 121.846 113.282C126.172 114.858 127.593 117.665 126.359 122.111C125.5 125.204 123.987 127.992 122.394 130.747C120.008 134.876 117.444 138.903 115.217 143.221C114.848 143.938 114.074 143.959 113.839 143.187C112.326 138.222 110.213 133.593 106.484 129.855C102.493 125.854 97.5149 123.987 92.0467 123.251C87.5064 122.64 83.0131 122.927 78.7372 124.663C74.5298 126.371 71.4469 129.144 70.9506 134.008C70.4557 138.858 72.259 142.923 75.585 146.243C79.1211 149.774 83.4835 151.519 88.566 151.197C92.3288 150.959 94.981 148.351 95.2148 144.585C95.4704 140.468 94.1874 136.773 91.804 133.509C89.2356 129.992 86.4619 130.234 84.3447 134.019C83.3507 135.797 82.7114 137.723 82.1121 139.665C81.8835 140.406 82.2688 140.628 82.8343 140.809C83.3897 140.986 83.8195 141.059 84.0741 140.31C84.7264 138.39 85.4077 136.471 86.5016 134.746C87.6379 132.953 88.3738 132.925 89.6608 134.677C91.6177 137.341 92.7016 140.316 92.6366 143.662C92.5751 146.83 90.9399 148.542 87.7743 148.485C82.5521 148.391 75.9303 145.018 74.3907 137.633C73.5298 133.503 75.0058 130.558 78.7593 128.634C81.9259 127.011 85.3381 126.678 88.8013 126.846C92.1836 127.011 95.4592 127.755 98.5262 129.26C103.139 131.524 105.999 135.329 107.922 139.967C109.533 143.851 110.406 147.912 110.901 152.069C110.976 152.702 110.795 153.281 110.597 153.863C108.83 159.049 107.814 164.369 108.018 169.862C108.308 177.644 110.478 184.915 114.11 191.783C117.552 198.289 121.905 204.11 126.829 209.566C129.695 212.742 133.159 216.201 136.643 219.437Z" fill="#E8492A"/>
</g>
<defs>
<clipPath id="clip0_63_5">
<rect width="235" height="215.26" fill="white" transform="matrix(-1 0 0 1 245 10)"/>
</clipPath>
</defs>
</svg>
