<svg width="289" height="267" viewBox="0 0 289 267" fill="none" xmlns="http://www.w3.org/2000/svg">
<rect width="289" height="267" rx="24" fill="#FCF1E3"/>
<g clip-path="url(#clip0_63_5)">
<rect width="269" height="215.26" transform="matrix(-1 0 0 1 279 25.8701)" fill="#FCF1E3"/>
<path d="M153.643 235.307C157.19 238.601 162.643 237.993 165.873 234.388C166.596 233.581 166.503 233.123 165.68 232.482C160.966 228.81 156.522 224.828 152.326 220.572C146.379 214.537 141.22 207.934 137.588 200.211C132.951 190.355 132.477 180.34 136.327 170.133C137.899 165.966 139.93 162.022 142.054 158.119C142.407 157.47 142.809 157.26 143.592 157.279C155.008 157.556 165.911 155.726 175.632 149.225C180.323 146.089 184.022 142.009 187 137.236C189.188 133.73 191.308 130.168 194.377 127.315C199.927 122.153 206.56 119.043 213.819 117.228C226.366 114.09 237.381 117.411 247.193 125.46C250.588 128.245 253.623 131.366 255.598 135.365C256.872 137.943 257.748 140.61 257.121 143.551C256.561 146.175 255.097 148.271 253.114 149.961C246.831 155.318 239.704 157.449 231.59 155.165C228.375 154.26 225.785 152.253 223.635 149.74C220.273 145.811 218.226 141.305 218.251 136.05C218.271 131.976 219.995 128.787 223.679 126.87C231.36 122.871 242.716 125.055 245.089 136.929C245.823 140.6 244.13 143.743 240.718 145.263C238.288 146.346 235.768 146.563 233.213 145.836C229.618 144.814 228.372 142.016 228.427 138.635C228.446 137.415 228.646 136.202 229.278 135.098C230.185 133.514 231.295 133.054 233.036 133.629C233.989 133.943 234.834 134.463 235.653 135.038C236.836 135.868 237.007 134.516 237.569 134.083C238.177 133.615 237.85 133.155 237.349 132.798C235.841 131.727 234.269 130.818 232.387 130.553C230.331 130.263 228.671 130.979 227.43 132.561C224.186 136.701 224.182 146.33 232.196 148.852C237.689 150.581 244.342 148.437 247.071 143.992C248.906 141.004 248.935 137.783 248.047 134.56C245.19 124.201 236.114 119.894 226.671 121.798C223.24 122.489 220.186 123.947 217.844 126.577C214.495 130.335 213.682 134.846 214.503 139.677C215.604 146.151 218.66 151.571 223.744 155.74C227.339 158.687 231.534 160.207 236.191 160.412C244.017 160.757 250.858 158.294 256.691 153.093C258.777 151.232 260.275 148.97 261.307 146.378C261.789 145.166 261.971 143.861 261.986 142.556C261.992 141.957 261.996 141.358 261.998 140.755C262.002 139.336 261.809 137.874 261.378 136.522C259.548 130.781 255.862 126.347 251.487 122.401C249.53 120.636 247.458 119.046 245.238 117.619C243.014 116.189 243.328 112.628 245.765 111.601C249.389 110.073 252.8 108.203 255.462 105.22C257.446 102.997 258.655 100.423 258.358 97.3721C258.136 95.0836 257.266 92.9704 255.896 91.1395C250.99 84.585 244.728 79.8722 236.682 78.0402C228.58 76.1956 220.978 81.5313 219.052 90.0577C217.728 95.9197 221.465 101.597 227.56 103.145C234.489 104.905 239.296 100.198 239.796 93.6017C239.926 91.8846 239.897 90.1532 239.147 88.5283C238.248 86.5806 236.771 85.909 234.748 86.577C232.744 87.239 231.129 88.5258 229.539 89.8576C228.903 90.3904 229.329 90.7712 229.635 91.2103C230.008 91.7447 230.385 91.8948 230.95 91.4251C232.128 90.4452 233.359 89.5327 234.773 88.9092C236.239 88.2625 236.947 88.5601 237.286 90.0891C237.99 93.2664 237.373 96.2212 235.329 98.7379C233.716 100.724 231.506 101.204 229.003 100.75C224.917 100.009 221.547 96.2784 221.686 92.5211C221.965 84.9779 229.472 79.4102 236.681 81.5806C243.63 83.6728 249.167 87.8307 253.063 93.9815C255.358 97.6059 254.75 100.636 251.442 103.43C247.879 106.44 243.616 108.012 239.192 109.2C235.679 110.143 232.1 110.805 228.468 110.965C226.538 111.05 224.606 110.579 222.652 110.593C213.84 110.658 205.7 113.14 198.058 117.414C193.046 120.218 188.761 123.857 185.49 128.619C185.047 129.264 184.567 129.573 183.779 129.431C176.374 128.1 169.706 125.257 164.455 119.694C161.813 116.896 160.033 113.683 160.372 109.587C160.9 103.21 166.852 96.9971 173.196 96.2129C175.84 95.886 178.397 95.9894 180.496 97.7336C183.666 100.367 185.07 103.821 184.299 107.945C183.769 110.782 180.936 112.607 177.67 112.429C173.957 112.227 170.557 109.294 169.802 105.642C169.357 103.485 170.24 102.508 172.455 102.73C175.031 102.988 176.885 104.279 177.956 106.653C178.184 107.159 178.341 107.643 179.094 107.445C179.969 107.214 180.318 106.87 179.924 105.905C178.267 101.845 174.205 99.7162 169.959 100.744C168.449 101.109 167.167 102.824 167.251 104.596C167.599 111.979 175.513 117.737 183.06 113.969C185.649 112.678 186.919 110.378 187.375 107.563C188.209 102.416 185.163 95.171 179.149 93.3027C175.169 92.0664 171.264 92.5045 167.543 94.2608C161.258 97.2265 157.637 102.315 156.457 109.077C155.827 112.68 156.846 116.073 158.758 119.169C161.811 124.112 166.215 127.518 171.297 130.141C172.864 130.949 174.469 131.65 176.133 132.251C178.9 133.25 180.334 136.467 178.354 138.643C172.832 144.712 165.847 148.077 157.912 149.658C154.605 150.317 151.264 150.641 147.89 150.612C147.17 150.606 146.607 150.009 146.961 149.381C147.046 149.231 147.134 149.085 147.212 148.936C149.045 145.393 150.855 141.819 151.314 137.795C151.91 132.56 150.541 128.005 146.196 124.677C145.688 124.288 145.456 123.832 145.343 123.258C144.364 118.257 143.651 113.213 143.693 108.114C143.728 103.937 144.174 99.7922 145.799 95.8571C148.272 89.8668 152.857 86.8577 159.152 86.1491C165.294 85.4577 171.487 85.1024 177.478 83.3907C179.613 82.7809 181.737 82.129 183.746 81.1869C189.154 78.6515 194.338 79.3055 199.443 82.0896C202.397 83.7006 204.957 85.659 206.363 88.8503C207.909 92.3622 205.879 96.5486 202.143 97.4726C200.465 97.8877 199.006 97.4301 197.877 96.1642C196.324 94.4232 195.462 92.3655 195.465 89.9989C195.467 88.6703 195.921 88.351 197.187 88.8C198.272 89.1848 199.276 89.748 200.241 90.3732C200.76 90.7088 201.185 90.8102 201.568 90.1591C201.967 89.4806 201.458 89.2799 201.049 89.0123C199.671 88.1093 198.274 87.2352 196.634 86.8856C195.109 86.5604 194.118 87.2186 193.762 88.7466C192.961 92.1823 194.955 97.0461 197.946 98.9109C199.529 99.8981 201.222 100.053 203.013 99.5668C206.928 98.5046 211.327 93.6339 208.772 87.7242C207.684 85.2093 206.105 83.0673 203.885 81.4631C200.86 79.2765 197.663 77.4141 193.927 76.6972C193.512 76.6176 193.334 76.1136 193.676 75.8657C193.915 75.6929 194.176 75.5712 194.407 75.4173C199.366 72.1133 204.028 68.4659 207.662 63.6737C209.623 61.0886 210.959 58.2361 211.683 55.0086C212.254 52.4578 214.137 50.5369 216.005 48.7602C220.37 44.6083 225.674 42.1004 231.293 40.1794C234.013 39.2496 236.784 38.5967 239.686 38.5042C244.662 38.3455 248.605 40.2751 251.557 44.2379C253.846 47.3108 255.339 50.6951 255.306 54.6246C255.269 58.991 253.295 62.182 249.263 63.7778C243.863 65.9147 238.663 65.3572 234.015 61.7115C231.02 59.3627 229.79 55.0595 231.123 51.9118C232.391 48.9186 234.942 47.5441 237.945 46.8737C243.203 45.6998 246.764 49.8037 247.379 53.6759C247.573 54.8993 246.877 55.9242 245.521 56.3108C243.18 56.9785 241.084 56.1514 239.029 55.1621C238.542 54.9276 238.133 54.5792 237.663 55.245C237.004 56.1796 237.019 56.4571 238.046 56.9984C240.68 58.386 243.41 59.2677 246.407 58.3351C248.822 57.5839 250.05 55.4791 249.585 52.9821C248.281 45.9745 241.705 42.3639 235.042 45.0065C232.828 45.8846 230.901 47.1754 229.541 49.1718C226.954 52.9718 227.376 56.8458 229.453 60.6672C231.645 64.702 235.316 66.716 239.627 67.6312C244.917 68.7543 249.95 68.1175 254.239 64.5643C257.994 61.4534 259.227 57.2651 258.697 52.5099C258.119 47.3232 255.867 42.9566 252.153 39.3174C249.058 36.2848 245.308 34.7697 241.033 34.5471C235.756 34.2722 230.838 35.8285 225.993 37.6761C220.279 39.8551 215.077 42.8413 210.873 47.383C210.756 47.5095 210.521 47.4583 210.4 47.3351C210.37 47.3045 210.345 47.2714 210.327 47.2344C208.239 42.7663 204.553 39.84 200.527 37.3436C194.036 33.3195 186.89 31.2095 179.293 30.7021C175.905 30.4757 172.569 30.9663 169.405 32.2671C165.628 33.8199 163.182 36.6848 161.908 40.4892C160.009 46.1633 160.066 51.8643 162.28 57.451C164.817 63.8498 169.775 66.6904 176.573 65.6353C180.545 65.0189 184.151 63.4689 187.089 60.6486C191.065 56.8334 191.639 51.8975 188.72 47.2037C187.822 45.7602 186.739 44.4683 185.255 43.592C182.771 42.1241 180.109 42.643 178.288 44.8794C176.327 47.2872 175.514 50.1185 175.182 53.1351C175.149 53.439 175.163 53.7483 175.128 54.0517C174.938 55.672 175.036 55.7407 176.613 55.7813C177.581 55.8062 177.814 55.4059 177.879 54.4968C178.047 52.1533 178.531 49.8745 179.803 47.8376C181.435 45.2241 183.307 45.1376 185.184 47.598C185.462 47.9625 185.726 48.3413 185.962 48.734C188.277 52.5804 187.791 55.9021 184.275 58.6772C180.887 61.3513 177.032 62.7483 172.63 62.1437C169.987 61.7806 167.937 60.4593 166.724 58.086C163.895 52.5553 163.684 46.8569 165.998 41.1052C167.565 37.2117 170.82 35.4497 174.724 35.1728C185.363 34.4183 194.657 37.8788 202.649 44.8446C205.227 47.0918 207.055 49.8774 206.852 53.5293C206.715 55.9979 205.474 58.0499 204.086 59.9854C201.508 63.5784 198.122 66.334 194.569 68.8861C186.96 74.3512 178.639 78.1287 169.273 79.2862C165.334 79.773 161.364 79.9999 157.422 80.4647C147.069 81.6852 140.83 88.505 138.483 98.1433C137.165 103.555 137.056 109.046 137.513 114.565C137.565 115.185 137.618 115.804 137.673 116.425C137.892 118.916 135.994 120.801 133.515 120.474C129.768 119.981 126.011 119.493 122.432 118.192C115.754 115.764 111.588 110.897 109.427 104.287C106.606 95.654 107.389 87.2345 111.398 79.1046C112.932 75.9938 114.768 73.0938 117.349 70.7288C121.433 66.9872 125.995 66.4691 130.696 69.36C135.017 72.0177 137.65 75.847 138.171 80.9834C138.312 82.3733 138.008 83.7308 137.57 85.0436C136.432 88.4593 134.456 91.2582 131.382 93.1953C128.829 94.8037 126.804 94.4096 125.222 91.8796C123.516 89.1524 122.64 86.212 123.201 82.9182C123.772 79.5696 128.63 78.8198 130.458 80.0669C131.292 80.6353 131.449 81.4964 131.307 82.4121C131.179 83.2449 130.984 84.09 130.488 84.7829C129.943 85.5453 130.153 86.0222 130.891 86.4297C131.124 86.5582 131.331 86.7351 131.55 86.8878C133.395 88.1688 133.402 88.1722 134.406 86.0717C135.124 84.5689 135.629 82.9841 135.477 81.3121C135.14 77.6216 132.562 75.3633 128.652 75.2166C122.42 74.9826 118.47 78.7594 118.521 85.0063C118.548 88.4409 119.384 91.716 121.337 94.5609C124.603 99.3173 128.827 100.376 133.758 97.4356C139.835 93.8107 143.21 88.2923 143.341 81.1859C143.437 75.9489 141.254 71.4512 137.484 67.7784C136.708 67.0223 137.042 65.6945 138.058 65.3181C138.982 64.9761 139.848 64.5807 140.696 64.1358C147.395 60.6205 151.021 53.208 149.57 45.8228C148.853 42.1784 146.599 39.7589 143.193 38.4289C140.428 37.3492 137.574 37.0251 134.649 37.7512C131.022 38.6515 128.957 41.7737 129.601 45.4571C129.951 47.4579 130.812 49.2417 132.096 50.8108C132.413 51.1983 132.708 51.7736 133.383 51.2297C133.964 50.7623 133.776 50.3806 133.414 49.8776C132.72 48.9158 132.105 47.9035 131.721 46.7614C130.395 42.8172 132.072 40.0049 136.197 39.5485C139.226 39.2135 142.047 39.963 144.504 41.8395C146.156 43.101 146.981 44.8642 147.158 46.8738C147.814 54.3217 143.511 60.4846 136.286 62.5257C135.368 62.785 134.436 63.0194 133.495 63.1651C132.324 63.3463 131.188 63.3278 130.01 62.8899C123.73 60.5553 118.215 62.1671 113.321 66.4113C110.214 69.1052 107.953 72.4736 106.088 76.1117C105.737 76.7949 105.434 77.1325 104.611 76.7444C95.7624 72.5744 88.0022 66.9822 81.9539 59.2103C79.6155 56.2055 78.0263 52.7998 77.8183 48.9218C77.5902 44.6693 79.3386 41.0515 81.919 37.8641C85.3611 33.6124 89.7224 30.7055 95.1429 29.5208C99.867 28.4882 104.092 29.5312 107.841 32.5279C111.714 35.6245 114.293 39.5303 115.128 44.4987C115.544 46.9781 115.247 49.3745 113.851 51.4473C110.552 56.3457 105.764 58.5262 99.9648 58.5004C96.8559 58.4865 95.5781 57.101 95.992 53.4817C96.3964 49.9455 97.8606 46.7885 100.182 44.0682C102.195 41.7087 103.932 41.998 105.121 44.8679C105.253 45.1854 105.392 45.5096 105.453 45.8444C105.627 46.792 106.183 46.8551 106.971 46.6171C107.813 46.3629 107.605 45.8329 107.436 45.2531C107.155 44.2913 106.782 43.3725 106.261 42.5183C104.825 40.1662 102.617 39.6776 100.279 41.1091C98.4057 42.2562 97.251 44.0122 96.1761 45.8218C94.5704 48.5251 93.5666 51.452 93.5001 54.6194C93.422 58.3403 95.1904 60.4571 98.8369 61.0345C104.372 61.9109 113.04 58.8322 116.552 52.6339C118.823 48.6261 118.726 44.3799 117.192 40.1965C115 34.2238 111.05 29.7514 105.202 27.1027C102.94 26.0783 100.39 25.864 97.9072 25.8707C97.7798 25.8711 97.6521 25.8716 97.5241 25.8722C95.9712 25.88 94.4153 26.0206 92.9177 26.4317C86.4912 28.1957 81.4467 31.867 77.593 37.3153C75.0794 40.869 73.6277 44.8303 73.8186 49.2443C74.024 53.9928 75.8398 58.2049 78.6703 61.9234C85.0524 70.3075 93.1966 76.5314 102.681 81.0232C103.499 81.4107 103.644 81.7722 103.359 82.5895C102.693 84.5045 102.204 86.4661 101.911 88.485C101.668 90.1591 100.131 90.7751 98.554 90.1639C93.4019 88.1674 88.0592 87.1469 82.4624 87.3748C77.0581 87.5948 72.0786 89.1195 67.3153 91.6582C66.1373 92.286 64.7465 91.2199 65.0408 89.9178C65.9337 85.9671 66.4495 82.0058 65.2117 78.0195C64.353 75.254 62.66 73.2982 59.9097 72.2495C57.0952 71.1763 54.2396 71.1336 51.3356 71.6831C50.5251 71.8364 49.9042 71.8017 49.4085 70.9473C46.459 65.8628 47.4057 59.4714 51.7899 55.5368C54.0975 53.4657 56.7666 52.3255 59.901 53.0691C63.5248 53.9287 66.4134 55.8777 68.0924 59.3178C68.7068 60.5764 68.4243 61.2703 67.1976 61.9562C66.175 62.5279 65.018 62.6222 63.8921 62.8284C62.0214 63.1711 60.1572 62.9204 58.2903 62.8112C57.7559 62.7799 57.2949 62.8283 57.2418 63.5398C57.1936 64.1867 57.5856 64.3003 58.0824 64.3667C59.7503 64.5897 61.4273 64.8169 63.1059 64.709C64.7416 64.6038 66.3824 64.3931 67.9104 63.7188C70.1211 62.7433 70.8582 61.0693 70.0968 58.7687C69.5018 56.9711 68.3744 55.5234 66.9906 54.2877C63.8948 51.5233 60.3654 49.7707 56.1123 50.5343C48.3243 51.9326 42.9865 60.5963 44.9165 68.4646C45.1902 69.5806 45.6189 70.6385 46.054 71.7341C46.2743 72.289 46.0277 72.9523 45.465 73.1518C43.6252 73.8041 41.8012 74.5044 40.0816 75.4283C35.0825 78.1142 30.261 81.0025 27.6411 86.2418C27.1742 87.1756 27 88.1826 27 89.2267C27 90.3878 27.2199 91.589 27.774 92.6094C31.0318 98.6083 36.4566 101.217 43.2128 101.49C46.707 101.631 49.6476 100.008 51.8037 97.1668C53.3255 95.1615 54.536 92.9903 54.8484 90.4475C55.4404 85.6298 53.6397 83.2209 48.8504 82.4501C46.7791 82.1167 44.7223 82.312 42.7803 83.1728C40.2584 84.2905 39.6714 86.2131 41.1054 88.5871C41.6644 89.5126 42.4566 90.2443 43.1983 91.018C43.6239 91.4619 43.9824 91.4049 44.3411 90.9635C44.6629 90.5676 45.2285 90.2224 44.6678 89.6172C44.0426 88.9425 43.4216 88.2629 42.9553 87.4652C42.2745 86.3008 42.4415 85.7365 43.6749 85.2397C46.0339 84.2895 48.3858 84.413 50.6824 85.454C51.7831 85.9529 52.303 86.8735 52.4453 88.0807C52.879 91.7595 49.4487 97.9114 44.5499 98.5556C42.716 98.7968 40.9613 98.5545 39.2395 98.0129C36.37 97.1104 33.9223 95.5073 31.8915 93.288C29.7165 90.911 29.6451 88.4507 31.7036 85.9733C33.7373 83.5259 36.2774 81.6853 39.0211 80.131C43.2159 77.7545 47.6592 76.0486 52.4679 75.4312C53.7942 75.2609 55.1388 75.2293 56.4657 75.4821C59.931 76.1422 61.4084 77.9064 61.5989 81.4715C61.8247 85.6962 60.7429 89.6578 59.2449 93.5358C58.7489 94.8196 58.1615 96.069 57.5897 97.3222C56.7111 99.2474 55.5311 100.958 54.1701 102.593C50.1545 107.419 47.091 112.763 45.8908 119.022C44.8523 124.438 45.3339 129.582 49.0259 133.977C52.0801 137.612 56.198 139.502 60.7122 140.582C76.5529 144.373 90.2862 133.513 94.0934 121.586C97.1051 112.151 92.5969 104.57 83.7151 100.988C78.2346 98.7771 72.7464 98.8435 67.4718 101.836C64.6741 103.424 62.5696 105.704 60.8578 108.391C58.3121 112.387 56.8311 116.677 56.9635 121.489C57.1113 126.858 59.7536 129.753 65.1197 129.99C69.3459 130.177 73.2977 129.106 76.8877 126.819C77.3374 126.532 77.7603 126.195 78.1612 125.842C80.7476 123.563 81.1555 120.46 79.2031 117.614C77.8438 115.632 76.0484 114.09 74.0994 112.706C73.4135 112.219 73.0289 112.515 72.7424 113.095C72.4513 113.684 71.4199 114.188 72.4659 114.997C73.9807 116.168 75.4897 117.351 76.5781 118.964C77.914 120.945 77.7312 122.435 75.8007 123.81C72.3784 126.249 68.505 127.127 64.3749 126.586C61.5652 126.218 60.4891 124.816 60.3567 121.889C60.2386 119.279 60.7874 116.781 61.7567 114.385C63.0065 111.295 64.7418 108.522 67.4127 106.44C71.8825 102.955 76.7873 102.612 81.91 104.635C86.0074 106.253 89.1157 108.945 90.3686 113.369C91.2869 116.611 90.3664 119.646 88.9132 122.445C84.7466 130.469 78.2385 135.376 69.1303 136.263C64.2045 136.742 59.5416 135.526 55.4093 132.703C51.432 129.985 50.3553 126.024 51.0701 121.5C52.2396 114.098 56.2462 108.264 61.5539 103.234C65.5768 99.4226 70.1684 96.5066 75.5135 94.8933C83.5845 92.4573 91.1886 94.0034 98.6524 97.4349C100.85 98.4452 101.668 99.7736 102.106 102.167C104.321 114.268 111.684 123.178 124.266 126.19C128.25 127.144 132.334 127.491 136.311 128.438C137.165 128.641 138.023 128.852 138.846 129.152C143.172 130.729 144.593 133.535 143.359 137.981C142.5 141.074 140.987 143.863 139.394 146.618C137.008 150.746 134.444 154.773 132.217 159.091C131.848 159.808 131.074 159.829 130.839 159.058C129.326 154.092 127.213 149.463 123.484 145.725C119.493 141.724 114.515 139.857 109.047 139.121C104.506 138.51 100.013 138.797 95.7372 140.533C91.5298 142.241 88.4469 145.014 87.9506 149.878C87.4557 154.728 89.259 158.793 92.585 162.114C96.1211 165.644 100.484 167.389 105.566 167.068C109.329 166.829 111.981 164.221 112.215 160.455C112.47 156.338 111.187 152.643 108.804 149.379C106.236 145.862 103.462 146.104 101.345 149.89C100.351 151.667 99.7114 153.594 99.1121 155.536C98.8835 156.276 99.2688 156.498 99.8343 156.679C100.39 156.856 100.82 156.929 101.074 156.18C101.726 154.26 102.408 152.341 103.502 150.616C104.638 148.823 105.374 148.795 106.661 150.547C108.618 153.212 109.702 156.186 109.637 159.532C109.575 162.701 107.94 164.412 104.774 164.355C99.5521 164.261 92.9303 160.888 91.3907 153.503C90.5298 149.373 92.0058 146.428 95.7593 144.504C98.9259 142.881 102.338 142.548 105.801 142.717C109.184 142.881 112.459 143.625 115.526 145.13C120.139 147.394 122.999 151.199 124.922 155.837C126.533 159.721 127.406 163.782 127.901 167.939C127.976 168.572 127.795 169.151 127.597 169.733C125.83 174.919 124.814 180.239 125.018 185.732C125.308 193.514 127.478 200.785 131.11 207.653C134.552 214.16 138.905 219.98 143.829 225.436C146.695 228.612 150.159 232.071 153.643 235.307Z" fill="#E8492A"/>
</g>
<defs>
<clipPath id="clip0_63_5">
<rect width="269" height="215.26" fill="white" transform="matrix(-1 0 0 1 279 25.8701)"/>
</clipPath>
</defs>
</svg>
