<svg width="317" height="133" viewBox="0 0 317 133" fill="none" xmlns="http://www.w3.org/2000/svg">
<path d="M47.7881 26.68C50.3081 29.02 52.108 31.72 53.1881 34.78C54.268 37.84 54.808 41.08 54.4481 44.14C54.0881 47.38 53.008 50.44 51.028 53.14C49.9481 54.22 48.6881 55.3 47.4281 56.2C45.988 57.1 44.5481 57.64 43.108 58C40.048 58.72 37.168 58.72 34.288 58.36C33.748 58.18 33.208 57.64 33.388 56.92C33.388 56.38 33.928 56.02 34.468 56.02C37.168 56.02 39.688 55.66 42.028 54.76C44.368 53.86 46.1681 52.42 47.4281 50.44C48.508 48.46 49.0481 46.3 49.0481 43.96C48.868 41.8 48.3281 39.82 47.608 38.02C47.4281 38.74 47.0681 39.64 46.708 40.36C45.628 42.16 43.828 43.6 41.848 43.96C39.868 44.5 37.888 44.32 36.088 43.78C35.728 43.6 35.548 43.24 35.728 42.88C35.908 42.52 36.268 42.34 36.448 42.52H36.628C38.248 42.88 39.868 42.7 41.308 42.16C42.748 41.62 43.828 40.54 44.368 39.28C45.088 37.84 44.9081 36.4 44.5481 34.96C44.188 34.42 42.028 28.3 32.128 30.1C31.588 30.1 31.228 30.28 30.688 30.28C29.248 30.64 27.808 31 26.188 31.54C25.468 32.08 24.568 32.62 24.028 33.34C22.768 34.78 20.608 38.56 21.508 49.72C22.048 55.84 24.568 57.82 28.708 61.06C33.208 64.66 38.608 68.8 40.768 78.7C41.128 78.52 41.488 78.34 41.848 78.16C43.108 77.8 44.188 77.8 45.268 77.8C45.448 77.8 45.8081 77.8 45.988 77.98H46.1681H46.348C46.5281 77.98 46.708 78.16 46.708 78.16C47.4281 78.34 47.7881 78.52 48.3281 78.7C49.228 79.24 49.9481 79.96 50.668 80.86C51.2081 81.76 51.5681 82.66 51.5681 83.74C51.748 84.64 51.5681 85.72 51.2081 86.44C51.028 86.8 50.668 86.98 50.3081 86.8C50.128 86.8 49.9481 86.44 49.9481 86.26V86.08C49.9481 85.36 49.9481 84.64 49.768 84.1C49.5881 83.38 49.0481 82.84 48.6881 82.48C48.148 82.12 47.608 81.76 47.0681 81.76C46.708 81.58 46.348 81.58 46.1681 81.58H45.988H45.8081C45.628 81.58 45.448 81.76 45.268 81.76C44.008 81.94 43.2881 82.48 42.568 83.56C42.208 84.1 41.848 84.64 41.488 85.36C41.6681 87.52 41.6681 89.86 41.488 92.38C40.948 99.76 36.988 105.34 30.148 107.68C26.908 108.94 23.488 109.12 20.968 109.12C19.708 109.12 18.448 109.12 17.908 108.94C14.848 108.76 12.688 106.24 12.868 103.18C13.048 100.3 15.568 97.96 18.628 98.14C19.888 98.32 23.668 98.5 26.548 97.6C29.248 96.52 30.508 94.9 30.688 91.66C31.588 77.08 27.448 73.66 22.048 69.52C18.268 66.64 13.588 63.04 11.608 55.84C10.708 56.56 9.80805 56.92 8.90805 57.1C8.54805 57.1 8.36805 57.28 8.18805 57.28H8.00805H7.64805C7.46805 57.28 7.46805 57.28 7.28805 57.28C6.74805 57.28 6.20805 57.28 5.66805 57.28C4.58805 56.92 3.68805 56.56 2.78805 55.84C2.06805 55.3 1.34805 54.4 0.988047 53.5C0.628047 52.6 0.448047 51.52 0.628047 50.62C0.628047 50.26 0.988047 50.08 1.16805 50.08C1.52805 50.08 1.70805 50.26 1.88805 50.62C1.88805 51.34 2.24805 52.06 2.60805 52.6C2.96805 53.14 3.50805 53.5 4.22805 53.68C4.76805 53.86 5.30805 54.04 6.02805 54.04C6.20805 54.04 6.56805 53.86 6.74805 53.86C6.92805 53.86 6.92805 53.86 6.92805 53.68H7.10805C7.28805 53.68 7.46805 53.5 7.64805 53.5C8.72805 52.78 9.26805 52.06 9.62805 50.98C9.98805 49.72 10.528 47.56 10.528 45.76C10.708 36.4 12.328 29.92 16.288 25.78C21.148 20.74 27.808 20.38 32.848 20.56C33.028 20.56 33.028 20.56 33.028 20.56C33.388 20.56 33.748 20.56 34.108 20.56C35.548 20.74 36.988 20.92 38.248 21.28C38.788 21.28 39.148 21.46 39.508 21.64C42.748 22.72 45.628 24.34 47.7881 26.68ZM123.803 31.18C124.163 32.08 124.343 32.98 124.343 33.88C124.523 34.78 124.343 35.68 124.163 36.58C124.163 36.76 124.163 37.12 123.983 37.3C123.983 37.48 123.983 37.66 123.803 37.84C123.803 38.38 123.623 38.74 123.263 39.28C122.543 40.9 121.103 42.34 119.663 43.42C118.223 44.5 116.603 45.22 114.983 45.58C114.623 45.76 114.083 45.94 113.723 46.12C114.083 46.48 114.263 46.84 114.623 47.38C115.163 48.64 115.343 50.08 115.163 51.34C115.163 51.88 114.623 52.24 114.083 52.24C113.723 52.24 113.363 51.88 113.183 51.34C113.183 50.26 112.823 49.36 112.283 48.64C111.743 48.1 111.023 47.56 110.123 47.38C109.943 47.38 109.583 47.38 109.403 47.38C109.763 67.18 109.583 102.28 109.583 110.92C109.583 113.98 107.063 116.32 104.183 116.32C101.123 116.32 98.7829 113.98 98.7829 110.92C98.7829 100.12 98.7829 88.78 98.7829 78.16H81.6829C81.6829 82.66 81.8629 87.88 81.8629 93.64V93.82C81.8629 94.54 81.8629 98.68 81.8629 98.86C81.6829 102.28 81.1429 105.88 79.7029 109.48C78.9829 111.28 77.9029 113.08 76.8229 114.7C75.5629 116.14 74.1229 117.58 72.5029 118.84C70.8829 119.92 69.2629 120.82 67.4629 121.54C66.7429 121.9 65.8429 122.08 64.9429 122.44C64.0429 122.62 63.1429 122.8 62.0629 122.98C61.1629 122.98 60.2629 123.16 59.1829 123.16C58.2829 122.98 57.3829 122.98 56.4829 122.8C54.5029 122.44 52.7029 121.72 51.0829 120.82C47.6629 118.84 45.3229 115.6 44.0629 112.18C43.5229 110.38 43.1629 108.58 43.3429 106.78C43.3429 104.8 43.8829 103 44.6029 101.38C45.5029 99.76 46.5829 98.32 47.8429 97.24C48.5629 96.7 49.2829 96.16 50.0029 95.62C50.7229 95.26 51.6229 94.9 52.3429 94.54C52.8829 94.36 53.6029 94.54 53.9629 95.08C54.1429 95.8 53.7829 96.34 53.4229 96.7C50.7229 97.96 48.5629 100.12 47.6629 102.82C46.7629 105.34 47.1229 108.22 48.2029 110.56C48.9229 112.18 50.1829 113.62 51.6229 114.7C51.6229 114.34 51.6229 113.8 51.6229 113.26C51.8029 111.64 52.3429 110.2 53.4229 109.12C54.5029 108.04 55.7629 107.5 57.0229 107.14C57.3829 106.96 57.7429 107.32 57.9229 107.68C57.9229 107.86 57.7429 108.22 57.5629 108.4C56.4829 108.94 55.4029 109.48 54.8629 110.38C54.3229 111.28 53.9629 112.36 54.1429 113.26C54.1429 114.16 54.5029 115.24 55.2229 115.96C55.4029 116.14 55.5829 116.5 55.7629 116.68C57.5629 117.04 59.1829 117.04 60.9829 116.5C61.5229 116.32 62.2429 116.14 62.7829 115.96C63.5029 115.6 64.0429 115.42 64.5829 115.06C65.8429 114.52 66.9229 113.8 67.8229 112.9C69.6229 111.1 70.7029 109.12 71.4229 106.6C71.9629 104.08 72.1429 101.38 72.1429 98.5C72.1429 98.32 72.1429 98.14 72.1429 97.96V97.78C71.6029 89.86 71.2429 83.38 71.0629 77.98C70.3429 77.62 69.4429 77.44 68.7229 77.44C68.0029 77.26 67.2829 77.26 66.7429 77.26C66.0229 77.44 65.3029 77.8 64.7629 78.16C64.5829 78.34 64.4029 78.52 64.2229 78.7L64.0429 78.88C63.8629 78.88 63.8629 78.88 63.8629 79.06C63.5029 79.24 63.3229 79.6 63.1429 79.96C62.7829 80.68 62.4229 81.4 62.4229 82.3C62.2429 83.02 62.4229 83.92 62.7829 84.82C63.1429 85.54 63.8629 86.26 64.5829 86.98C65.1229 87.34 65.1229 87.88 64.7629 88.24C64.5829 88.6 64.2229 88.78 63.6829 88.6C62.6029 88.06 61.5229 87.34 60.6229 86.44C59.5429 85.36 59.0029 84.1 58.6429 82.66C58.2829 81.22 58.2829 79.78 58.6429 78.34C58.8229 77.8 59.0029 77.08 59.3629 76.36C59.5429 76.18 59.5429 76 59.7229 75.82C59.7229 75.64 59.9029 75.46 59.9029 75.28C60.0829 74.92 60.4429 74.74 60.6229 74.38C61.3429 73.3 62.6029 72.22 63.8629 71.32C65.3029 70.6 66.9229 70.06 68.3629 69.88C69.2629 69.7 70.3429 69.7 71.2429 69.52C71.2429 65.74 71.6029 62.5 71.9629 59.8C73.5829 50.08 77.5429 44.14 84.3829 41.08C87.6229 39.46 92.6629 38.56 98.2429 38.56C98.2429 37.3 98.0629 36.4 98.0629 36.04C97.5229 33.16 96.2629 32.44 95.9029 32.26C92.8429 30.64 86.9029 32.26 84.3829 33.34C81.6829 34.6 78.4429 33.34 77.1829 30.64C76.1029 27.94 77.3629 24.7 80.0629 23.44C81.3229 22.9 92.4829 18.22 100.943 22.72C103.823 24.16 107.423 27.4 108.683 34.06C108.863 34.96 108.863 36.58 109.043 38.92C109.223 38.92 109.583 38.92 109.763 38.92C111.023 39.1 112.103 38.92 113.183 38.74C114.443 38.56 115.523 38.38 116.243 38.02C117.143 37.48 117.863 37.12 118.403 36.4C118.583 36.22 118.763 36.04 118.763 35.86C118.943 35.86 118.943 35.68 118.943 35.5C119.123 35.5 119.123 35.32 119.123 35.14C119.303 34.78 119.483 34.24 119.663 33.88C119.843 32.98 119.663 31.9 119.303 31C118.403 29.38 116.063 27.76 113.723 27.76C113.183 27.76 112.643 27.22 112.643 26.68C112.643 26.14 113.003 25.78 113.543 25.78C115.163 25.42 116.783 25.6 118.223 26.14C119.843 26.68 121.283 27.58 122.363 28.84C123.083 29.56 123.443 30.28 123.803 31.18ZM82.0429 68.08H98.7829C98.7829 60.7 98.6029 54.04 98.6029 48.82C94.1029 48.64 90.3229 49.36 88.7029 50.08C84.2029 52.24 82.5829 57.28 82.0429 68.08ZM161.367 116.86C160.287 118.3 158.847 119.74 157.047 120.46L156.687 120.64H156.327C156.147 120.82 155.967 120.82 155.607 120.82C155.247 121 154.707 121.18 154.167 121.18C153.267 121.18 152.187 121.18 151.287 120.82C150.207 120.64 149.307 120.1 148.587 119.38C147.867 118.66 147.327 117.76 146.967 116.86C146.607 115.96 146.427 114.88 146.427 113.98C146.427 113.62 146.607 113.08 146.607 112.54C146.787 112.18 146.967 111.64 147.147 111.1C147.687 110.2 148.407 109.66 149.307 109.12C149.667 108.94 150.207 108.76 150.567 108.58C150.747 108.58 150.927 108.4 151.107 108.4C151.467 108.4 151.647 108.22 151.827 108.22C152.367 108.22 152.907 108.58 153.087 109.12C153.087 109.66 152.727 110.02 152.367 110.2H152.187L151.827 110.38C151.647 110.38 151.467 110.56 151.287 110.56C151.107 110.74 150.747 110.92 150.567 111.1C150.027 111.46 149.667 111.82 149.487 112.36C149.307 112.54 149.307 112.9 149.307 113.08C149.127 113.26 149.127 113.62 149.307 113.98C149.307 114.52 149.487 115.06 149.667 115.6C150.207 116.68 151.107 117.4 152.187 117.58C153.087 117.76 154.347 117.4 155.247 116.86C157.227 115.78 158.487 113.26 159.207 110.74C159.207 110.38 159.207 110.2 159.387 110.02C159.387 109.48 159.387 108.94 159.387 108.4C159.567 101.74 159.747 93.28 158.487 88.42C157.767 85.54 156.507 84.46 155.607 84.1C152.727 82.84 148.407 83.74 145.527 84.64C145.707 98.14 146.247 105.7 146.247 105.88C146.607 108.76 144.447 111.46 141.387 111.64C141.207 111.64 141.027 111.82 141.027 111.82C138.147 111.82 135.807 109.66 135.627 106.78C135.447 105.88 133.827 86.98 135.087 55.12C134.907 55.12 134.727 54.94 134.547 54.76C133.467 54.22 132.387 53.86 131.487 53.68C130.407 53.32 129.327 53.32 128.427 53.5C128.067 53.5 127.527 53.68 127.167 53.86C126.987 54.04 126.807 54.22 126.627 54.22C126.447 54.4 126.267 54.58 126.087 54.58C125.547 55.3 125.187 56.2 125.007 57.1C125.007 58.18 125.187 59.08 125.727 59.8C126.087 60.16 126.447 60.52 126.807 60.7C127.347 60.88 127.707 60.88 128.247 60.88C128.607 60.88 129.147 60.7 129.507 60.34C129.867 60.16 130.047 59.98 130.227 59.8C130.407 59.62 130.407 59.44 130.587 59.44C130.587 59.26 130.767 59.08 130.767 59.08L130.947 58.9C131.307 58.54 131.847 58.36 132.387 58.72C132.747 59.08 132.747 59.44 132.567 59.98C132.567 60.16 132.387 60.34 132.387 60.52C132.207 60.7 132.207 60.88 132.027 61.06C131.847 61.42 131.487 61.78 131.307 62.14C130.587 62.68 129.867 63.4 128.967 63.58C127.887 63.94 126.807 63.94 125.907 63.76C125.007 63.58 124.107 63.04 123.387 62.5C122.487 61.78 121.947 61.06 121.407 60.16C121.047 59.26 120.687 58.36 120.687 57.28C120.507 55.48 120.867 53.5 121.947 51.7C122.127 51.16 122.487 50.8 122.847 50.44C123.207 50.08 123.567 49.72 123.927 49.36C124.647 48.64 125.547 48.1 126.447 47.74C127.887 47.2 129.507 46.84 130.947 46.84C130.407 46.12 129.867 45.58 129.507 44.86C128.967 43.42 128.787 41.98 129.147 40.54C129.507 39.28 130.227 38.2 131.127 37.3C131.307 36.94 131.847 36.94 132.027 37.3C132.387 37.48 132.387 37.84 132.207 38.2C131.487 39.1 131.127 40 130.947 40.9C130.947 41.98 131.127 42.88 131.667 43.6C132.207 44.32 132.927 44.86 133.827 45.22C134.367 45.4 134.907 45.58 135.627 45.58C135.987 39.82 136.347 33.7 136.887 27.22C137.067 24.34 139.767 22.18 142.647 22.36C145.707 22.54 147.867 25.24 147.687 28.12C146.967 35.5 146.607 42.34 146.247 48.64C149.307 49.9 153.987 51.16 157.047 49.9C157.767 49.54 159.747 48.64 161.007 44.14C162.267 38.56 162.087 36.58 161.727 23.08V22.54C161.547 19.48 163.887 16.96 166.947 16.96C170.007 16.78 172.347 19.12 172.527 22.18V22.72C173.067 36.76 173.067 39.64 171.447 46.66C169.467 54.76 164.967 58.18 161.367 59.8C159.027 60.88 156.507 61.24 153.987 61.24C151.107 61.24 148.227 60.7 145.707 59.98C145.707 64.84 145.527 69.34 145.527 73.48C149.847 72.4 155.247 72.04 160.107 74.38C163.167 75.82 167.307 78.88 168.927 85.72C170.187 90.94 170.367 98.14 170.187 104.8C170.547 105.7 171.087 106.42 171.807 106.96C172.707 107.68 173.607 107.86 174.687 107.86C175.767 107.86 176.847 107.5 177.747 106.78C178.107 106.6 178.467 106.6 178.647 106.96C179.007 107.32 178.827 107.68 178.647 107.86C177.567 108.76 176.307 109.48 174.867 109.84C173.427 110.02 171.987 109.84 170.547 109.12C170.367 108.94 170.367 108.94 170.187 108.76C170.187 109.48 170.187 110.02 170.187 110.74C170.187 110.92 170.007 111.1 170.007 111.46C170.187 112.54 170.187 113.8 170.367 115.06C170.547 116.86 170.727 118.66 171.267 120.46C171.627 122.08 172.347 123.52 173.067 124.6C173.247 124.96 173.427 125.14 173.787 125.32C173.967 125.68 174.147 125.68 174.327 125.86C174.867 126.22 175.407 126.58 175.947 126.58C177.027 126.94 178.107 126.58 178.827 125.86C179.187 125.5 179.547 124.78 179.727 124.24C179.907 123.88 179.907 123.34 179.907 122.98C180.087 122.8 180.087 122.44 179.907 122.08C179.907 121.36 179.547 120.82 179.187 120.28C179.007 120.1 178.647 119.74 178.467 119.56C178.287 119.38 178.107 119.38 177.927 119.2H177.747L177.567 119.02C176.667 118.84 176.127 117.94 176.307 117.04C176.487 116.14 177.567 115.6 178.467 115.78H178.647L179.007 115.96C179.007 115.96 179.187 115.96 179.367 116.14C179.727 116.14 179.907 116.32 180.267 116.5C180.807 116.86 181.347 117.22 181.887 117.58C182.787 118.48 183.687 119.74 184.047 121C184.227 121.72 184.407 122.44 184.407 122.98C184.407 123.7 184.407 124.24 184.407 124.96C184.227 126.22 183.867 127.66 182.967 128.74C182.247 130 181.167 131.08 179.727 131.8C178.467 132.52 176.847 132.7 175.407 132.7C173.967 132.7 172.527 132.34 171.267 131.62C170.727 131.44 170.007 131.08 169.467 130.54C168.927 130.18 168.387 129.64 167.847 129.1C166.947 128.2 166.227 127.12 165.687 126.04C164.967 124.96 164.607 123.88 164.067 122.8C163.167 120.64 162.627 118.66 162.087 116.5C162.087 116.32 162.087 116.14 162.087 115.78C161.907 116.14 161.727 116.5 161.367 116.86ZM201.216 103.9C201.396 106.96 199.236 109.48 196.176 109.66C195.996 109.84 195.996 109.84 195.816 109.84C192.936 109.84 190.596 107.5 190.416 104.8C189.696 95.44 189.336 85.18 189.156 74.92C187.176 74.74 185.556 74.92 184.296 75.46C184.116 75.64 183.756 76 183.396 76.18C183.396 76.18 183.396 76.36 183.216 76.36C183.216 76.54 183.216 76.54 183.036 76.54C183.036 76.72 182.856 76.72 182.676 76.9C182.316 77.44 182.136 78.34 181.956 79.06C181.956 80.86 182.676 82.66 184.476 83.2H184.656C185.196 83.38 185.376 83.92 185.196 84.46C185.016 85 184.656 85.18 184.296 85.18C182.856 85.18 181.416 84.64 180.336 83.56C179.076 82.48 178.356 81.22 177.996 79.6C177.636 78.16 177.636 76.54 177.996 74.92C178.176 74.56 178.356 74.2 178.536 73.84C178.716 73.66 178.716 73.3 178.896 73.3C178.896 73.12 179.076 72.94 179.256 72.76C179.616 72.04 180.156 71.5 180.696 70.96C181.956 69.88 183.396 68.98 184.836 68.62C185.196 68.44 185.376 68.44 185.556 68.44C185.196 68.08 185.016 67.72 184.656 67.36C183.936 66.28 183.396 64.84 183.576 63.4C183.576 61.96 184.116 60.7 184.836 59.8C185.196 59.44 185.556 59.44 185.916 59.62C186.096 59.8 186.276 60.16 186.096 60.34C185.556 61.42 185.376 62.5 185.556 63.4C185.556 64.3 185.916 65.2 186.636 65.92C187.356 66.46 188.076 66.82 188.976 67H189.156C188.976 43.42 189.696 22.72 189.696 22.36C189.696 19.48 192.216 17.14 195.276 17.14C198.156 17.32 200.496 19.84 200.496 22.72C200.496 23.08 199.776 42.88 199.956 65.56H218.316C218.496 49.54 221.016 22.72 221.016 22C221.376 20.2 221.376 18.4 221.376 16.6C221.196 14.8 221.016 13.18 220.476 11.74C219.936 10.3 219.216 9.21999 218.316 8.31999C218.136 8.31999 217.956 8.14 217.776 7.96C217.596 7.96 217.596 7.77999 217.416 7.77999C217.056 7.59999 216.696 7.41999 216.516 7.24C215.796 7.06 215.256 6.87999 214.536 6.87999C213.456 6.87999 212.196 7.41999 211.476 8.49999C210.936 8.86 210.756 9.58 210.576 10.3C210.396 10.66 210.396 11.02 210.216 11.38C210.216 11.74 210.216 12.1 210.396 12.46C210.396 13.18 210.576 13.72 211.116 14.26C211.296 14.62 211.476 14.8 211.836 14.98C212.016 15.16 212.196 15.16 212.376 15.34C212.376 15.34 212.556 15.34 212.556 15.52H212.736C213.636 15.7 214.176 16.6 213.996 17.5C213.636 18.58 212.736 19.12 211.836 18.76H211.656L211.296 18.58C211.116 18.58 211.116 18.58 210.936 18.4C210.576 18.4 210.216 18.22 210.036 18.04C209.496 17.86 208.956 17.32 208.416 16.96C207.876 16.42 207.336 15.88 206.976 15.34C206.616 14.8 206.436 14.08 206.256 13.54C206.076 12.82 205.896 12.1 205.896 11.38C205.896 10.84 205.896 10.12 205.896 9.58C206.076 8.31999 206.436 6.87999 207.156 5.79999C207.876 4.54 208.776 3.45999 210.036 2.55999C211.116 1.83999 212.556 1.3 213.996 1.11999C215.436 0.759995 216.876 0.939992 218.136 1.3C218.856 1.48 219.396 1.65999 220.116 1.83999C220.476 2.02 220.656 2.2 221.016 2.2C221.376 2.38 221.556 2.55999 221.916 2.73999C223.176 3.45999 224.256 4.35999 225.156 5.44C225.876 6.52 226.776 7.59999 227.316 8.68C228.396 10.84 228.936 13.18 229.296 15.34C230.016 14.8 230.736 14.44 231.456 14.08H231.816L231.996 13.9C232.356 13.9 232.536 13.72 232.716 13.72C233.256 13.54 233.616 13.54 234.156 13.36C235.236 13.36 236.136 13.36 237.216 13.72C238.116 14.08 239.196 14.62 239.916 15.34C240.636 16.06 241.176 16.78 241.536 17.86C241.716 18.76 241.896 19.66 241.896 20.56C241.896 20.92 241.896 21.46 241.716 22C241.716 22.54 241.536 22.9 241.176 23.44C240.636 24.34 239.916 25.06 239.196 25.42C238.656 25.6 238.296 25.78 237.936 25.96C237.756 26.14 237.396 26.14 237.216 26.14C237.036 26.32 236.856 26.32 236.496 26.32C235.956 26.5 235.416 25.96 235.416 25.42C235.416 25.06 235.596 24.52 236.136 24.34C236.316 24.34 236.496 24.34 236.676 24.16C236.856 24.16 237.036 24.16 237.036 23.98C237.396 23.8 237.756 23.8 237.936 23.62C238.476 23.26 238.836 22.72 239.016 22.18C239.196 22 239.196 21.82 239.196 21.46C239.196 21.28 239.196 20.92 239.196 20.56C239.196 20.02 239.016 19.48 238.656 18.94C238.116 17.86 237.216 17.32 236.316 17.14C235.236 16.96 234.156 17.14 233.076 17.68C231.636 18.58 230.736 20.02 230.016 21.64C230.016 22 230.016 22.18 230.016 22.54C230.016 23.62 230.016 24.7 229.836 25.78C229.836 26.32 229.836 26.68 229.656 27.22C229.476 36.58 228.756 63.76 229.296 87.34C229.476 87.52 229.476 87.52 229.656 87.7C230.376 88.6 231.096 89.14 232.356 89.32C232.536 89.5 232.716 89.5 232.896 89.5H233.076C233.256 89.5 233.256 89.5 233.256 89.5C233.616 89.5 233.796 89.5 234.156 89.32C234.696 89.14 235.236 88.78 235.776 88.42C236.136 88.06 236.496 87.52 236.676 86.8C237.036 86.26 237.036 85.54 236.856 84.64C236.856 84.28 237.036 84.1 237.396 83.92C237.576 83.92 237.936 84.1 238.116 84.28C238.476 85.18 238.656 86.08 238.656 87.16C238.656 88.06 238.296 89.14 237.756 90.04C237.216 90.94 236.496 91.66 235.596 92.2C235.236 92.56 234.696 92.74 234.156 92.92C233.976 92.92 233.796 93.1 233.616 93.1H233.436H233.256C233.076 93.28 232.896 93.28 232.536 93.28C231.636 93.46 230.556 93.46 229.476 93.1C229.836 97.96 230.016 102.64 230.376 106.78C230.556 109.66 228.396 112.36 225.516 112.54C225.336 112.54 225.156 112.54 224.976 112.54C222.276 112.54 219.936 110.56 219.576 107.68C218.856 98.14 218.496 87.34 218.316 76.36H199.956C200.136 85.9 200.496 95.44 201.216 103.9ZM315.58 31.18C315.94 32.08 316.12 32.98 316.12 33.88C316.3 34.78 316.12 35.68 315.94 36.58C315.94 36.76 315.94 37.12 315.76 37.3C315.76 37.48 315.76 37.66 315.58 37.84C315.58 38.38 315.4 38.74 315.04 39.28C314.32 40.9 312.88 42.34 311.44 43.42C310 44.5 308.38 45.22 306.76 45.58C306.4 45.76 305.86 45.94 305.5 46.12C305.86 46.48 306.04 46.84 306.4 47.38C306.94 48.64 307.12 50.08 306.94 51.34C306.94 51.88 306.4 52.24 305.86 52.24C305.5 52.24 305.14 51.88 304.96 51.34C304.96 50.26 304.6 49.36 304.06 48.64C303.52 48.1 302.8 47.56 301.9 47.38C301.72 47.38 301.36 47.38 301.18 47.38C301.54 67.18 301.36 102.28 301.36 110.92C301.36 113.98 298.84 116.32 295.96 116.32C292.9 116.32 290.56 113.98 290.56 110.92C290.56 100.12 290.56 88.78 290.56 78.16H273.46C273.46 82.66 273.64 87.88 273.64 93.64V93.82C273.64 94.54 273.64 98.68 273.64 98.86C273.46 102.28 272.92 105.88 271.48 109.48C270.76 111.28 269.68 113.08 268.6 114.7C267.34 116.14 265.9 117.58 264.28 118.84C262.66 119.92 261.04 120.82 259.24 121.54C258.52 121.9 257.62 122.08 256.72 122.44C255.82 122.62 254.92 122.8 253.84 122.98C252.94 122.98 252.04 123.16 250.96 123.16C250.06 122.98 249.16 122.98 248.26 122.8C246.28 122.44 244.48 121.72 242.86 120.82C239.44 118.84 237.1 115.6 235.84 112.18C235.3 110.38 234.94 108.58 235.12 106.78C235.12 104.8 235.66 103 236.38 101.38C237.28 99.76 238.36 98.32 239.62 97.24C240.34 96.7 241.06 96.16 241.78 95.62C242.5 95.26 243.4 94.9 244.12 94.54C244.66 94.36 245.38 94.54 245.74 95.08C245.92 95.8 245.56 96.34 245.2 96.7C242.5 97.96 240.34 100.12 239.44 102.82C238.54 105.34 238.9 108.22 239.98 110.56C240.7 112.18 241.96 113.62 243.4 114.7C243.4 114.34 243.4 113.8 243.4 113.26C243.58 111.64 244.12 110.2 245.2 109.12C246.28 108.04 247.54 107.5 248.8 107.14C249.16 106.96 249.52 107.32 249.7 107.68C249.7 107.86 249.52 108.22 249.34 108.4C248.26 108.94 247.18 109.48 246.64 110.38C246.1 111.28 245.74 112.36 245.92 113.26C245.92 114.16 246.28 115.24 247 115.96C247.18 116.14 247.36 116.5 247.54 116.68C249.34 117.04 250.96 117.04 252.76 116.5C253.3 116.32 254.02 116.14 254.56 115.96C255.28 115.6 255.82 115.42 256.36 115.06C257.62 114.52 258.7 113.8 259.6 112.9C261.4 111.1 262.48 109.12 263.2 106.6C263.74 104.08 263.92 101.38 263.92 98.5C263.92 98.32 263.92 98.14 263.92 97.96V97.78C263.38 89.86 263.02 83.38 262.84 77.98C262.12 77.62 261.22 77.44 260.5 77.44C259.78 77.26 259.06 77.26 258.52 77.26C257.8 77.44 257.08 77.8 256.54 78.16C256.36 78.34 256.18 78.52 256 78.7L255.82 78.88C255.64 78.88 255.64 78.88 255.64 79.06C255.28 79.24 255.1 79.6 254.92 79.96C254.56 80.68 254.2 81.4 254.2 82.3C254.02 83.02 254.2 83.92 254.56 84.82C254.92 85.54 255.64 86.26 256.36 86.98C256.9 87.34 256.9 87.88 256.54 88.24C256.36 88.6 256 88.78 255.46 88.6C254.38 88.06 253.3 87.34 252.4 86.44C251.32 85.36 250.78 84.1 250.42 82.66C250.06 81.22 250.06 79.78 250.42 78.34C250.6 77.8 250.78 77.08 251.14 76.36C251.32 76.18 251.32 76 251.5 75.82C251.5 75.64 251.68 75.46 251.68 75.28C251.86 74.92 252.22 74.74 252.4 74.38C253.12 73.3 254.38 72.22 255.64 71.32C257.08 70.6 258.7 70.06 260.14 69.88C261.04 69.7 262.12 69.7 263.02 69.52C263.02 65.74 263.38 62.5 263.74 59.8C265.36 50.08 269.32 44.14 276.16 41.08C279.4 39.46 284.44 38.56 290.02 38.56C290.02 37.3 289.84 36.4 289.84 36.04C289.3 33.16 288.04 32.44 287.68 32.26C284.62 30.64 278.68 32.26 276.16 33.34C273.46 34.6 270.22 33.34 268.96 30.64C267.88 27.94 269.14 24.7 271.84 23.44C273.1 22.9 284.26 18.22 292.72 22.72C295.6 24.16 299.2 27.4 300.46 34.06C300.64 34.96 300.64 36.58 300.82 38.92C301 38.92 301.36 38.92 301.54 38.92C302.8 39.1 303.88 38.92 304.96 38.74C306.22 38.56 307.3 38.38 308.02 38.02C308.92 37.48 309.64 37.12 310.18 36.4C310.36 36.22 310.54 36.04 310.54 35.86C310.72 35.86 310.72 35.68 310.72 35.5C310.9 35.5 310.9 35.32 310.9 35.14C311.08 34.78 311.26 34.24 311.44 33.88C311.62 32.98 311.44 31.9 311.08 31C310.18 29.38 307.84 27.76 305.5 27.76C304.96 27.76 304.42 27.22 304.42 26.68C304.42 26.14 304.78 25.78 305.32 25.78C306.94 25.42 308.56 25.6 310 26.14C311.62 26.68 313.06 27.58 314.14 28.84C314.86 29.56 315.22 30.28 315.58 31.18ZM273.82 68.08H290.56C290.56 60.7 290.38 54.04 290.38 48.82C285.88 48.64 282.1 49.36 280.48 50.08C275.98 52.24 274.36 57.28 273.82 68.08Z" fill="#E8492A"/>
</svg>
