<svg width="800" height="712" viewBox="0 0 800 712" fill="none" xmlns="http://www.w3.org/2000/svg">
<path fill-rule="evenodd" clip-rule="evenodd" d="M66.667 356C66.667 171.905 215.905 22.6665 400 22.6665C584.094 22.6665 733.334 171.905 733.334 356C733.334 540.093 584.094 689.333 400 689.333C215.905 689.333 66.667 540.093 66.667 356ZM400 156C344.77 156 300 200.771 300 256C300 311.23 344.77 356 400 356C455.23 356 500 311.23 500 256C500 200.771 455.23 156 400 156ZM596.487 537.576L566.674 522.666C596.487 537.576 596.464 537.623 596.464 537.623L596.44 537.673L596.387 537.773L596.274 538L596 538.52C595.797 538.903 595.554 539.346 595.267 539.85C594.697 540.86 593.954 542.106 593.02 543.556C591.154 546.46 588.527 550.18 584.99 554.423C577.897 562.933 567.21 573.483 551.83 583.736C520.76 604.446 472.504 622.666 400.004 622.666C277.165 622.666 225.517 570.346 208.885 546.383C198.821 531.883 199.936 514.943 206.022 502.77C230.569 453.676 280.745 422.666 335.634 422.666H458.807C517.114 422.666 570.414 455.61 596.49 507.76C601.18 517.143 601.18 528.19 596.487 537.576Z" fill="#E8492A"/>
</svg>
